# xmcd CD database file
#
# Track frame offsets:
#	187
#	13540
#	29852
#	42925
#	57000
#	65925
#	83005
#	93177
#	109425
#	123040
#	136637
#
# Disc length: 1944 seconds
#
# Revision: 0
# Processed by: cddbd v1.5.1PL0 Copyright (c) Steve Scherf et al.
# Submitted via: CDex 1.51
#
DISCID=8d07960b
DTITLE=Lena Horne - Stormy Weather
DYEAR=1989
DGENRE=Jazz
TTITLE0=Tomorrow Mountain
TTITLE1=Out of this world
TTITLE2=Summertime
TTITLE3=Mad about the boys
TTITLE4=Ridin' On the Moon
TTITLE5=Stormy Weather
TTITLE6=Baby Won't You Please Come Home
TTITLE7=Any Place I Hang My Hat is Come
TTITLE8=I'll Be Around
TTITLE9=I Wonder What Became Of Me
TTITLE10=Just One Of Those Things
EXTD=YEAR: 1989
EXTT0=
EXTT1=
EXTT2=
EXTT3=
EXTT4=
EXTT5=
EXTT6=
EXTT7=
EXTT8=
EXTT9=
EXTT10=
PLAYORDER=
